<?xml version="1.0" standalone="no"?>
<!DOCTYPE svg PUBLIC "-//W3C//DTD SVG 20010904//EN"
 "http://www.w3.org/TR/2001/REC-SVG-20010904/DTD/svg10.dtd">
<svg version="1.0" xmlns="http://www.w3.org/2000/svg"
 width="32.000000pt" height="32.000000pt" viewBox="0 0 32.000000 32.000000"
 preserveAspectRatio="xMidYMid meet">

<g transform="translate(0.000000,32.000000) scale(0.100000,-0.100000)"
fill="#000000" stroke="none">
<path d="M130 255 c-19 -20 -44 -35 -57 -35 -22 0 -23 -3 -23 -80 l0 -80 89 0
c59 0 92 4 98 13 15 18 36 115 29 132 -3 10 -19 15 -46 15 -37 0 -39 2 -29 19
14 21 6 51 -14 51 -7 0 -28 -16 -47 -35z m41 -13 c-19 -35 -13 -42 35 -42 43
0 46 -2 41 -22 -3 -13 -9 -40 -12 -60 l-7 -38 -59 0 -59 0 0 62 c0 56 3 65 32
95 34 35 46 37 29 5z m-81 -102 c0 -33 -4 -60 -10 -60 -6 0 -10 27 -10 60 0
33 4 60 10 60 6 0 10 -27 10 -60z"/>
</g>
</svg>
