<?xml version="1.0" standalone="no"?>
<!DOCTYPE svg PUBLIC "-//W3C//DTD SVG 20010904//EN"
 "http://www.w3.org/TR/2001/REC-SVG-20010904/DTD/svg10.dtd">
<svg version="1.0" xmlns="http://www.w3.org/2000/svg"
 width="64.000000pt" height="64.000000pt" viewBox="0 0 64.000000 64.000000"
 preserveAspectRatio="xMidYMid meet">

<g transform="translate(0.000000,64.000000) scale(0.100000,-0.100000)"
fill="#000000" stroke="none">
<path d="M53 508 c-12 -23 -18 -56 -18 -108 0 -64 4 -82 27 -121 15 -25 35
-52 45 -60 16 -12 17 -12 7 1 -12 16 -13 22 -17 80 -2 32 0 35 28 36 17 1 38
5 48 9 23 9 49 -21 44 -52 -3 -16 0 -20 12 -15 13 5 13 1 -3 -23 -11 -17 -26
-35 -33 -40 -8 -6 -16 -19 -17 -30 -2 -11 -9 -19 -15 -18 -19 5 -12 -15 8 -22
10 -3 26 -14 36 -25 10 -11 28 -20 39 -19 17 0 15 3 -10 14 -59 26 -64 53 -16
108 20 23 30 22 35 -5 3 -22 4 -22 12 -3 17 41 24 44 50 22 16 -15 20 -24 12
-29 -8 -5 -7 -8 3 -8 13 0 13 -1 0 -10 -13 -8 -12 -10 3 -10 9 0 17 -6 17 -14
0 -8 6 -17 13 -19 9 -4 9 -6 -1 -6 -7 -1 -10 -5 -7 -11 4 -6 -1 -7 -12 -3 -16
6 -17 5 -3 -12 14 -17 13 -18 -2 -12 -13 4 -15 2 -11 -10 4 -11 2 -14 -5 -9
-23 14 -12 -4 12 -20 34 -21 106 -30 106 -11 0 17 54 69 63 60 8 -8 57 17 57
29 0 4 -8 8 -17 8 -35 0 -48 16 -36 42 20 41 19 50 -11 84 -24 27 -34 32 -55
27 -14 -3 -30 -9 -35 -14 -5 -4 -22 -1 -38 7 -23 12 -36 13 -60 5 -27 -10 -29
-9 -22 7 4 9 8 34 8 55 1 45 44 91 74 80 38 -15 66 -52 66 -87 0 -28 3 -33 14
-24 36 30 34 47 -10 98 -26 30 -52 49 -65 50 -12 0 -42 -16 -68 -35 l-46 -35
-42 29 c-23 16 -58 45 -77 65 -43 44 -64 45 -87 4z m45 -53 c-3 -3 -9 2 -12
12 -6 14 -5 15 5 6 7 -7 10 -15 7 -18z m37 -5 c3 -6 -1 -7 -9 -4 -18 7 -21 14
-7 14 6 0 13 -4 16 -10z m-29 -43 c17 6 18 -16 1 -39 -12 -15 -14 -15 -25 2
-6 11 -9 27 -5 37 4 9 8 12 10 6 3 -7 11 -9 19 -6z m324 -147 c0 -5 -7 -7 -15
-4 -8 4 -15 8 -15 10 0 2 7 4 15 4 8 0 15 -4 15 -10z"/>
</g>
</svg>
